<svg xmlns="http://www.w3.org/2000/svg" version="1.1" xmlns:xlink="http://www.w3.org/1999/xlink" xmlns:svgjs="http://svgjs.com/svgjs" height="126.54585266113281" width="263.3558349609375"><defs id="SvgjsDefs4893"></defs><g id="SvgjsG4894" rel="mainfill" name="main_text" xmlns:name="main_text" transform="translate(-1.7000000476837158,-114.14414978027344)" fill="#ffffff"><path d="M28.32 202.74C28.32 201.89 27.57 201.15 26.72 201.15L26.51 201.15C25.60 201.15 24.86 201.89 24.86 202.74C24.86 202.74 24.86 215.94 24.86 218.02C24.86 218.44 24.43 218.44 24.27 218.18C21.72 215.09 18.68 213.87 15.12 213.87C11.44 213.87 8.25 215.09 5.64 217.75C2.98 220.36 1.70 223.50 1.70 227.23C1.70 230.95 2.98 234.09 5.64 236.75C8.25 239.36 11.44 240.69 15.12 240.69C18.68 240.69 22.03 238.99 24.48 236.17C24.75 235.85 24.86 236.22 24.86 236.38C24.86 236.81 24.86 238.40 24.86 238.40C24.86 239.31 25.60 240 26.51 240L26.72 240C27.57 240 28.32 239.31 28.32 238.40ZM25.12 227.23C25.12 232.76 20.65 237.50 15.12 237.50C9.58 237.50 5.11 232.76 5.11 227.23C5.11 221.69 9.58 217.06 15.12 217.06C20.65 217.06 25.12 221.69 25.12 227.23ZM52.05 237.29C52.05 237.29 43.96 226.32 43.43 225.63C42.85 224.88 43.27 224.56 43.80 224.09C44.28 223.61 50.46 218.07 50.46 218.07C51.15 217.43 51.20 216.42 50.62 215.73L50.51 215.62C49.87 214.98 48.86 214.88 48.17 215.52C48.17 215.52 38.75 224.30 38.00 225.04C37.36 225.63 37.10 225.36 37.10 224.46C37.10 223.55 37.10 202.80 37.10 202.80C37.10 201.89 36.35 201.15 35.45 201.15L35.29 201.15C34.38 201.15 33.64 201.89 33.64 202.80L33.64 238.35C33.64 239.25 34.38 240 35.29 240L35.45 240C36.35 240 37.10 239.25 37.10 238.35C37.10 238.35 37.10 231.48 37.10 230.95C37.10 230.42 37.36 229.89 37.74 229.57C38.43 228.93 39.44 227.97 39.76 227.71C40.18 227.33 40.40 227.33 40.82 227.86C41.20 228.40 49.29 239.31 49.29 239.31C49.82 240.05 50.88 240.21 51.57 239.68L51.73 239.57C52.43 239.04 52.59 237.98 52.05 237.29ZM55.83 227.17L55.83 227.28C55.83 228.24 56.58 228.98 57.48 228.98L69.03 228.98C69.94 228.98 70.68 228.24 70.68 227.33L70.68 227.23C70.68 226.32 69.94 225.58 69.03 225.58L57.48 225.58C56.58 225.58 55.83 226.32 55.83 227.17ZM108.47 214.51C108.36 214.51 108.20 214.51 108.20 214.51C106.87 214.51 106.45 214.72 105.86 216.00C105.86 216.00 99.26 231.32 98.78 232.44C98.62 232.81 98.25 233.72 98.20 233.93C97.99 234.73 97.88 234.68 97.67 233.93C97.56 233.67 97.19 232.66 97.03 232.34C96.76 231.86 95.48 228.82 94.05 225.47C93.89 225.20 93.94 225.10 94.10 224.78C96.12 220.36 97.88 216.58 98.04 216.16C98.52 215.20 97.67 214.51 96.87 214.51C96.76 214.51 96.55 214.51 96.55 214.51C95.22 214.51 94.79 214.72 94.21 216.00C94.21 216.00 93.46 217.86 92.40 220.36C92.18 220.84 92.02 220.84 91.81 220.36C90.75 217.86 90.00 216.00 90.00 216.00C89.52 214.93 89.10 214.51 87.66 214.51L87.39 214.51C86.17 214.51 85.85 215.41 86.28 216.37C86.38 216.63 88.09 220.31 90.11 224.67C90.32 225.20 90.32 225.10 90.11 225.58C88.72 228.93 87.39 231.96 87.18 232.44C86.97 232.81 86.65 233.72 86.60 233.93C86.38 234.73 86.22 234.68 86.01 233.93C85.96 233.67 85.58 232.66 85.37 232.34C84.84 231.27 78.40 216.00 78.40 216.00C77.92 214.93 77.49 214.51 76.06 214.51L75.74 214.51C74.57 214.51 74.19 215.41 74.62 216.37C74.99 217.17 85.58 240.05 85.58 240.05C85.96 240.90 86.60 240.90 87.02 240.05C87.02 240.05 89.26 235.05 91.81 229.62C92.08 228.98 92.13 229.04 92.40 229.57C94.90 235.00 97.19 240.05 97.19 240.05C97.61 240.90 98.25 240.90 98.62 240.05C98.62 240.05 109.22 217.17 109.69 216.16C110.12 215.20 109.27 214.51 108.47 214.51ZM138.97 224.56C138.60 221.90 137.48 219.62 135.62 217.75C132.95 215.09 129.81 213.87 126.09 213.87C122.36 213.87 119.22 215.09 116.56 217.75C113.95 220.36 112.62 223.50 112.62 227.23C112.62 230.95 113.95 234.09 116.56 236.75C119.22 239.36 122.36 240.69 126.09 240.69C129.81 240.69 132.95 239.36 135.62 236.70C135.83 236.49 136.04 236.27 136.25 236.01C137.05 235.16 137.00 233.93 136.04 233.29C134.82 232.55 134.07 233.08 132.85 234.57C131.62 236.06 128.80 237.50 126.09 237.50C123.32 237.50 120.98 236.17 119.06 234.25C117.31 232.55 116.35 230.37 116.14 227.71C116.08 226.91 116.24 226.69 116.99 226.69L137.37 226.69C138.86 226.69 139.07 225.36 138.97 224.56ZM134.28 223.29L117.89 223.29C117.04 223.29 116.77 223.23 117.15 222.54C117.57 221.85 118.16 221.05 119.01 220.20C120.98 218.23 123.32 217.06 126.09 217.06C128.80 217.06 131.14 218.23 133.11 220.20C133.86 220.89 134.39 221.58 134.76 222.28C135.08 222.81 135.40 223.29 134.28 223.29ZM143.23 202.74L143.23 238.40C143.23 239.31 143.97 240 144.82 240L145.04 240C145.94 240 146.69 239.31 146.69 238.40C146.69 238.40 146.69 236.81 146.69 236.38C146.69 236.22 146.79 235.85 147.06 236.17C149.51 238.99 152.86 240.69 156.43 240.69C160.10 240.69 163.29 239.36 165.90 236.75C168.56 234.09 169.84 230.95 169.84 227.23C169.84 223.50 168.56 220.36 165.90 217.75C163.29 215.09 160.10 213.87 156.43 213.87C152.86 213.87 149.83 215.09 147.27 218.18C147.11 218.44 146.69 218.44 146.69 218.02C146.69 215.94 146.69 202.74 146.69 202.74C146.69 201.89 145.94 201.15 145.04 201.15L144.82 201.15C143.97 201.15 143.23 201.89 143.23 202.74ZM146.42 227.23C146.42 221.69 150.89 217.06 156.43 217.06C161.96 217.06 166.43 221.69 166.43 227.23C166.43 232.76 161.96 237.50 156.43 237.50C150.89 237.50 146.42 232.76 146.42 227.23ZM183.25 201.15L175.85 201.15C174.95 201.15 174.20 201.84 174.20 202.74L174.20 238.35C174.20 239.25 174.95 240 175.85 240L183.25 240C194.37 240 202.84 231.06 202.84 219.93C202.84 208.81 194.37 201.15 183.25 201.15ZM183.25 236.54C183.25 236.54 179.10 236.54 178.51 236.54C177.93 236.54 177.66 236.22 177.66 235.74C177.66 235.26 177.66 209.88 177.66 205.24C177.66 204.82 177.88 204.55 178.46 204.55C179.05 204.55 183.25 204.55 183.25 204.55C192.46 204.55 199.43 210.73 199.43 219.93C199.43 229.14 192.46 236.54 183.25 236.54ZM232.75 224.56C232.38 221.90 231.26 219.62 229.40 217.75C226.73 215.09 223.59 213.87 219.87 213.87C216.14 213.87 213.00 215.09 210.34 217.75C207.73 220.36 206.40 223.50 206.40 227.23C206.40 230.95 207.73 234.09 210.34 236.75C213.00 239.36 216.14 240.69 219.87 240.69C223.59 240.69 226.73 239.36 229.40 236.70C229.61 236.49 229.82 236.27 230.03 236.01C230.83 235.16 230.78 233.93 229.82 233.29C228.60 232.55 227.85 233.08 226.63 234.57C225.40 236.06 222.58 237.50 219.87 237.50C217.10 237.50 214.76 236.17 212.84 234.25C211.09 232.55 210.13 230.37 209.92 227.71C209.86 226.91 210.02 226.69 210.77 226.69L231.15 226.69C232.64 226.69 232.86 225.36 232.75 224.56ZM228.07 223.29L211.67 223.29C210.82 223.29 210.55 223.23 210.93 222.54C211.35 221.85 211.94 221.05 212.79 220.20C214.76 218.23 217.10 217.06 219.87 217.06C222.58 217.06 224.93 218.23 226.89 220.20C227.64 220.89 228.17 221.58 228.54 222.28C228.86 222.81 229.18 223.29 228.07 223.29ZM263.99 201.31L263.89 201.25C263.03 200.93 262.08 201.36 261.76 202.21L255.32 219.51C255.32 219.51 251.54 230.53 251.11 231.75C250.05 234.57 250.05 233.93 249.30 231.96C248.82 230.63 244.88 219.51 244.88 219.51L238.44 202.21C238.12 201.36 237.17 200.93 236.32 201.25L236.21 201.31C235.36 201.63 234.93 202.58 235.25 203.44L248.45 238.94C248.72 239.63 249.41 240 250.10 240C250.79 240 251.48 239.63 251.75 238.94L264.95 203.44C265.27 202.58 264.84 201.63 263.99 201.31Z" fill="#ffffff" style="fill: rgb(255, 255, 255);"></path></g><g id="SvgjsG4895" rel="mainfill" name="symbol" xmlns:name="symbol_mainfill" transform="translate(94.17791557312012,-1.500000238418579) scale(1)" fill="#ffffff"><g fill="#ffffff"><path d="M36.4,54.6v-7.7c-1.8,0-3.5,0.1-5.3,0.3C32.3,51.1,34.2,53.9,36.4,54.6z" fill="#ffffff" style="fill: rgb(255, 255, 255);"></path><path d="M36.4,30.4c-2,0-3.9-0.1-5.9-0.3c-0.4,1.9-0.7,4.1-0.8,6.3h6.7V30.4z" fill="#ffffff" style="fill: rgb(255, 255, 255);"></path><path d="M36.4,38.6h-6.7c0.1,2.2,0.3,4.4,0.8,6.3c2-0.2,4-0.3,5.9-0.3V38.6z" fill="#ffffff" style="fill: rgb(255, 255, 255);"></path><path d="M36.4,20.4c-2.2,0.7-4.1,3.5-5.3,7.4c1.8,0.1,3.6,0.2,5.3,0.3V20.4z" fill="#ffffff" style="fill: rgb(255, 255, 255);"></path><path d="M31.8,21.2c-3.2,1.1-5.9,3.1-8,5.7c1.6,0.3,3.3,0.5,4.9,0.7C29.5,25,30.5,22.8,31.8,21.2z" fill="#ffffff" style="fill: rgb(255, 255, 255);"></path><path d="M51.2,26.9c-2-2.6-4.8-4.6-8-5.7c1.3,1.6,2.3,3.8,3.1,6.4C47.9,27.4,49.5,27.2,51.2,26.9z" fill="#ffffff" style="fill: rgb(255, 255, 255);"></path><path d="M31.8,53.8c-1.3-1.6-2.3-3.8-3.1-6.4c-1.6,0.2-3.2,0.4-4.9,0.7C25.9,50.7,28.6,52.7,31.8,53.8z" fill="#ffffff" style="fill: rgb(255, 255, 255);"></path><path d="M44.6,30.1c-2,0.2-4,0.3-5.9,0.3v6h6.7C45.3,34.1,45,32,44.6,30.1z" fill="#ffffff" style="fill: rgb(255, 255, 255);"></path><path d="M43.2,53.8c3.2-1.1,5.9-3.1,8-5.7c-1.6-0.3-3.3-0.5-4.9-0.7C45.5,50,44.5,52.2,43.2,53.8z" fill="#ffffff" style="fill: rgb(255, 255, 255);"></path><path d="M38.6,20.4v7.7c1.8,0,3.5-0.1,5.3-0.3C42.7,23.9,40.8,21.1,38.6,20.4z" fill="#ffffff" style="fill: rgb(255, 255, 255);"></path><path d="M45.3,38.6h-6.7v6c2,0,3.9,0.1,5.9,0.3C45,43,45.3,40.9,45.3,38.6z" fill="#ffffff" style="fill: rgb(255, 255, 255);"></path><path d="M38.6,54.6c2.2-0.7,4.1-3.5,5.3-7.4c-1.8-0.1-3.6-0.2-5.3-0.3V54.6z" fill="#ffffff" style="fill: rgb(255, 255, 255);"></path><path d="M36.5,9v11.4h2V9c1.6-0.4,2.8-1.9,2.8-3.7c0-2.1-1.7-3.8-3.8-3.8s-3.8,1.7-3.8,3.8C33.7,7.1,34.9,8.5,36.5,9z" fill="#ffffff" style="fill: rgb(255, 255, 255);"></path><path d="M38.5,66V54.6h-2V66c-1.6,0.4-2.8,1.9-2.8,3.7c0,2.1,1.7,3.8,3.8,3.8s3.8-1.7,3.8-3.8C41.3,67.9,40.1,66.5,38.5,66z" fill="#ffffff" style="fill: rgb(255, 255, 255);"></path><path d="M49.4,29.5c-0.8,0.1-1.7,0.2-2.5,0.3c0.4,2,0.7,4.2,0.8,6.5h7.1c-0.2-2.4-0.8-4.6-1.8-6.6l9.8-5.6c0.7,0.7,1.7,1.1,2.7,1.1   c0.6,0,1.3-0.2,1.9-0.5v0c0.9-0.5,1.5-1.3,1.8-2.3c0.3-1,0.1-2-0.4-2.9c-1-1.8-3.4-2.4-5.2-1.4c-0.9,0.5-1.5,1.3-1.8,2.3   c-0.2,0.6-0.2,1.3,0,1.9L49.4,29.5z" fill="#ffffff" style="fill: rgb(255, 255, 255);"></path><path d="M25.6,45.5c0.8-0.1,1.7-0.2,2.5-0.3c-0.4-2-0.7-4.2-0.8-6.5h-7.1c0.2,2.4,0.8,4.6,1.8,6.6l-9.8,5.6c-1.2-1.2-3-1.5-4.6-0.6   c-0.9,0.5-1.5,1.3-1.8,2.3s-0.1,2,0.4,2.9c0.7,1.2,2,1.9,3.3,1.9c0.6,0,1.3-0.2,1.9-0.5c0.9-0.5,1.5-1.3,1.8-2.3   c0.2-0.6,0.2-1.3,0-1.9L25.6,45.5z" fill="#ffffff" style="fill: rgb(255, 255, 255);"></path><path d="M67.3,50.3c-1.5-0.9-3.4-0.6-4.6,0.6l-9.8-5.6c1-2,1.7-4.2,1.8-6.6h-7.1c-0.1,2.3-0.3,4.5-0.8,6.5c0.8,0.1,1.7,0.2,2.5,0.3   l12.3,7.1c-0.2,0.6-0.2,1.3,0,1.9c0.3,1,0.9,1.8,1.8,2.3c0.6,0.3,1.3,0.5,1.9,0.5c1.3,0,2.6-0.7,3.3-1.9c0.5-0.9,0.6-1.9,0.4-2.9   C68.8,51.6,68.2,50.8,67.3,50.3z" fill="#ffffff" style="fill: rgb(255, 255, 255);"></path><path d="M7.7,24.7C8.3,25,9,25.2,9.6,25.2c1,0,2-0.4,2.7-1.1l9.8,5.6c-1,2-1.7,4.2-1.8,6.6h7.1c0.1-2.3,0.3-4.5,0.8-6.5   c-0.9-0.1-1.8-0.2-2.7-0.4l0-0.1l-12.2-7c0.2-0.6,0.2-1.3,0-1.9c-0.3-1-0.9-1.8-1.8-2.3v0c-1.8-1-4.1-0.4-5.2,1.4   c-0.5,0.9-0.6,1.9-0.4,2.9S6.8,24.2,7.7,24.7z" fill="#ffffff" style="fill: rgb(255, 255, 255);"></path><rect x="8.6" y="28.3" width="2" height="2"></rect><rect x="8.6" y="33.6" width="2" height="2"></rect><rect x="8.6" y="38.9" width="2" height="2"></rect><rect x="8.6" y="44.3" width="2" height="2"></rect><rect x="64.4" y="28.3" width="2" height="2"></rect><rect x="64.4" y="33.6" width="2" height="2"></rect><rect x="64.4" y="38.9" width="2" height="2"></rect><rect x="64.4" y="44.3" width="2" height="2"></rect><rect x="43.3" y="64.7" transform="matrix(0.8661 -0.4999 0.4999 0.8661 -26.9316 30.9701)" width="2" height="2"></rect><rect x="47.9" y="62.1" transform="matrix(0.8661 -0.4999 0.4999 0.8661 -24.984 32.9178)" width="2" height="2"></rect><rect x="52.6" y="59.4" transform="matrix(0.8661 -0.4999 0.4999 0.8661 -23.0364 34.8657)" width="2" height="2"></rect><rect x="57.2" y="56.8" transform="matrix(0.8661 -0.4999 0.4999 0.8661 -21.089 36.8134)" width="2" height="2"></rect><rect x="15.5" y="16.5" transform="matrix(0.8661 -0.4999 0.4999 0.8661 -6.5226 10.563)" width="2" height="2"></rect><rect x="20.1" y="13.8" transform="matrix(0.8661 -0.4999 0.4999 0.8661 -4.575 12.5106)" width="2" height="2"></rect><rect x="24.7" y="11.1" transform="matrix(0.8661 -0.4999 0.4999 0.8661 -2.6273 14.4586)" width="2" height="2"></rect><rect x="29.3" y="8.5" transform="matrix(0.8661 -0.4999 0.4999 0.8661 -0.6799 16.4063)" width="2" height="2"></rect><rect x="57.5" y="16.5" transform="matrix(0.5 -0.866 0.866 0.5 14.1559 59.4297)" width="2" height="2"></rect><rect x="52.9" y="13.8" transform="matrix(0.5 -0.866 0.866 0.5 14.1559 54.1075)" width="2" height="2"></rect><rect x="48.3" y="11.1" transform="matrix(0.4997 -0.8662 0.8662 0.4997 14.168 48.7973)" width="2" height="2"></rect><rect x="43.7" y="8.5" transform="matrix(0.5 -0.866 0.866 0.5 14.1557 43.4636)" width="2" height="2"></rect><rect x="29.7" y="64.7" transform="matrix(0.5 -0.866 0.866 0.5 -41.6083 59.4289)" width="2" height="2"></rect><rect x="25.1" y="62.1" transform="matrix(0.5 -0.866 0.866 0.5 -41.6083 54.1066)" width="2" height="2"></rect><rect x="20.4" y="59.4" transform="matrix(0.4997 -0.8662 0.8662 0.4997 -41.6123 48.8057)" width="2" height="2"></rect><rect x="15.8" y="56.8" transform="matrix(0.5 -0.866 0.866 0.5 -41.6085 43.4628)" width="2" height="2"></rect></g></g></svg>