<svg xmlns="http://www.w3.org/2000/svg" version="1.1" xmlns:xlink="http://www.w3.org/1999/xlink" xmlns:svgjs="http://svgjs.com/svgjs" height="151.18001403808594" width="257.1199951171875"><defs id="SvgjsDefs8851"></defs><g id="SvgjsG8852" rel="mainfill" name="main_text" xmlns:name="main_text" transform="translate(-1.440000057220459,-89.77999267578124)" fill="#ffffff"><path d="M24.32 228.76L15.89 229.16L15.89 225.63L9.79 228.84L3.05 223.95L1.44 199.62L11.24 194.08L15.81 200.51L15.97 184.05Q16.30 182.28 14.21 179.72L23.52 179.72Q21.91 181.80 21.91 183.65L22.64 225.95Q23.04 227.64 24.32 228.76M9.47 200.75L8.83 213.67Q8.51 220.49 10.44 224.27L15.89 221.70L15.97 203.64L11.88 198.66L9.47 200.75ZM57.23 197.13Q56.67 197.38 55.79 197.94L53.78 200.27L45.03 209.98L52.18 230.53Q53.14 233.18 56.11 234.62L46.32 234.62Q46.32 234.22 46.72 233.26Q47.12 232.29 47.12 231.81Q46.96 231.17 46.40 229.48L41.26 213.75L33.87 221.54L33.87 232.21Q33.87 235.26 38.37 238.47Q40.62 239.68 42.87 240.96Q39.25 240.88 33.07 238.11Q26.89 235.34 25.77 235.34Q24.80 235.34 23.68 235.59L25.45 234.46Q27.21 233.42 27.21 232.21L27.85 182.85Q27.85 182.36 27.09 181.60Q26.33 180.84 26.25 180.60L35.96 180.60Q35.24 181.32 34.44 182.85L33.47 215.84L47.44 199.94Q47.92 199.38 47.92 199.06Q47.92 198.26 43.67 196.33Q43.11 196.25 42.38 195.85L57.23 197.13ZM74.09 216.96L76.34 215.68L76.66 215.52L66.46 215.76L68.39 214.63L59.08 213.91L75.13 211.42L74.25 212.71L83.96 211.42L83.08 213.11L93.03 212.07L93.03 216.88L74.09 216.96ZM119.12 229.81Q118.88 229.97 118.72 229.97Q118.64 229.97 118.60 229.89Q118.56 229.81 118.48 229.81Q118.32 229.81 118.16 229.97L117.52 230.45Q117.92 229.81 117.92 229.73Q117.68 229.64 117.28 229.32L112.70 222.74Q112.62 223.30 112.62 222.98Q111.82 223.62 110.69 225.51Q109.57 227.40 109.01 227.80Q105.64 230.37 105.00 230.37Q104.59 230.37 104.43 230.13L98.25 222.74Q98.01 222.50 98.09 217.12Q98.17 214.55 98.33 207.01Q98.33 206.05 98.53 203.92Q98.73 201.79 98.73 200.67Q98.73 198.82 95.68 198.10L100.50 197.94L107.64 198.42Q105.64 198.98 105.40 200.67Q105.56 201.39 105.32 209.50L105.00 219.69Q105.00 222.18 105.16 222.50Q105.88 224.03 107.32 223.62Q108.61 221.54 110.86 218.49L110.86 211.74Q110.86 209.34 110.94 207.73L111.02 206.13Q111.10 205.32 111.82 205.08L115.99 201.55L115.99 201.87Q115.59 202.19 115.59 202.51Q115.59 202.75 116.03 203.28Q116.47 203.80 116.47 204.04Q116.15 211.82 116.39 220.90Q116.39 222.02 117.52 224.59Q118.24 224.43 122.25 219.21Q122.25 217.76 122.66 210.54Q122.90 206.13 122.66 202.03Q122.49 199.46 120.17 198.90Q121.45 198.90 123.98 198.98Q126.51 199.06 127.79 199.06Q128.51 199.06 130.00 198.98Q131.49 198.90 132.21 198.90Q130.36 199.70 130.12 199.94Q129.40 200.51 129.40 201.95L129.00 217.44L119.12 229.81ZM152.20 209.82L150.19 213.99Q147.06 212.15 143.04 212.15Q140.64 212.15 140.07 212.79L140.64 225.95Q141.28 227.32 143.37 228.44Q144.97 226.35 145.53 223.22Q145.61 222.90 145.93 219.13L149.47 223.62L144.57 230.61L140.48 230.69L132.37 223.62Q131.73 220.57 131.73 216.64Q131.73 211.02 132.85 204.84L141.84 197.78Q142.80 197.46 143.45 197.86L149.95 202.11L152.20 209.82M146.42 210.30L142.32 201.07Q141.76 200.35 141.60 200.35Q141.28 200.35 140.96 200.91L139.99 210.06Q144.49 209.82 146.42 210.30ZM153.00 232.78L161.43 233.18L161.43 229.64L167.53 232.86L175.71 220.90L173.95 202.75L166.08 198.10L161.51 204.52L161.35 185.66Q161.03 183.89 163.11 181.32L153.80 182.12Q155.41 184.05 155.41 186.06L154.68 229.97Q154.28 231.65 153.00 232.78M167.85 204.76Q168.57 211.10 168.57 216.24Q168.57 224.11 166.88 228.28L161.43 225.71L161.35 207.65L165.44 202.67L167.85 204.76ZM195.62 239.92Q195.78 240 195.86 240L177.64 239.84Q182.06 238.47 182.06 235.02L181.65 187.74Q181.33 184.93 178.68 183.73L192.09 183.73Q191.93 183.81 191.77 183.97L192.57 183.97Q202.69 187.74 212.08 194.89Q212.72 206.53 212.72 216.80Q212.72 219.61 212.48 225.15Q211.76 228.28 205.66 233.66Q202.28 236.63 198.67 239.60L196.26 240L195.62 239.92M190.65 232.29Q190.73 232.53 190.81 232.86Q192.65 234.14 196.26 235.26Q197.87 234.38 199.72 232.78Q201.88 230.85 202.36 229.48L202.20 196.33Q201.40 193.60 197.79 191.60Q195.78 190.63 191.77 188.63Q191.29 189.91 191.05 192.64Q190.81 195.37 190.32 196.65L190.65 232.29ZM236.80 209.82L234.79 213.99Q231.66 212.15 227.65 212.15Q225.24 212.15 224.68 212.79L225.24 225.95Q225.88 227.32 227.97 228.44Q229.58 226.35 230.14 223.22Q230.22 222.90 230.54 219.13L234.07 223.62L229.18 230.61L225.08 230.69L216.97 223.62Q216.33 220.57 216.33 216.64Q216.33 211.02 217.46 204.84L226.45 197.78Q227.41 197.46 228.05 197.86L234.55 202.11L236.80 209.82M231.02 210.30L226.93 201.07Q226.37 200.35 226.21 200.35Q225.88 200.35 225.56 200.91L224.60 210.06Q229.10 209.82 231.02 210.30ZM258.56 202.59L258.07 222.34Q257.35 222.90 249.40 229.24Q246.19 231.81 245.39 231.81Q244.99 231.81 244.83 231.57L240.25 224.99Q240.09 224.83 240.09 199.06Q240.09 198.50 240.49 198.50Q241.30 198.50 243.22 200.10Q246.67 202.99 246.51 203.08Q246.59 211.26 247.16 224.75Q247.96 226.35 250.21 225.71Q250.45 225.63 253.02 222.26Q253.10 218.73 253.10 215.28Q253.10 207.33 252.62 199.46Q252.37 199.70 252.37 199.86Q252.37 200.67 255.10 201.55Q258.39 202.59 258.56 202.59Z" fill="#ffffff" style="fill: rgb(255, 255, 255);"></path></g><g id="SvgjsG8853" rel="mainfill" name="symbol" xmlns:name="symbol_mainfill" transform="translate(78.54499664306641,-12.529999542236329) scale(0.1)" fill="#ffffff"><g fill="#ffffff"><path d="M661.8,226L637,215.3c-12.6-5.4-27.4,0.4-32.8,13l-36.9,85.7L269.8,185.9c-4.2-34.1-33.4-60.6-68.6-60.6   c-38.1,0-69.2,31-69.2,69.1c0,38.1,31,69.2,69.2,69.2c12.3,0,23.9-3.2,33.9-8.9l322.4,138.9l27.1,11.7c10.8,4.7,23.3,1,30-8.2   c1.1-1.5,2-3.1,2.7-4.8l11.1-25.7l0.2-0.4l46.3-107.5C680.3,246.2,674.4,231.5,661.8,226z M201.2,231.9c-2.4,0-4.7-0.2-7-0.7   c-17.3-3.3-30.4-18.5-30.4-36.8c0-20.6,16.8-37.4,37.4-37.4c11.2,0,21.2,4.9,28,12.7c5.8,6.6,9.4,15.3,9.4,24.8   C238.6,215.1,221.8,231.9,201.2,231.9z" fill="#ffffff" style="fill: rgb(255, 255, 255);"></path><path d="M628.3,366.7c-0.1,0.3-0.2,0.5-0.3,0.8l-10.7,24.8c0,0,0,0.1-0.1,0.1L628.3,366.7z" fill="#ffffff" style="fill: rgb(255, 255, 255);"></path><path d="M545.3,279.8L387.9,212c-6.1-2.6-8.9-9.7-6.3-15.8l21-48.7c2.6-6.1,9.7-8.9,15.8-6.3l157.4,67.8   c6.1,2.6,8.9,9.7,6.3,15.8l-21,48.7C558.5,279.6,551.4,282.4,545.3,279.8z" fill="#ffffff" style="fill: rgb(255, 255, 255);"></path><path d="M614.5,397.2c-6.7,9.2-19.2,12.9-30.1,8.3l-24.8-10.7c-0.7-0.3-1.5-0.7-2.2-1.1l27.1,11.7   C595.4,410,607.8,406.4,614.5,397.2z" fill="#ffffff" style="fill: rgb(255, 255, 255);"></path><path d="M630.3,632.5l-24.9-10.6c0,0-0.1,0-0.1-0.1L630.3,632.5z" fill="#ffffff" style="fill: rgb(255, 255, 255);"></path><path d="M717.5,549.4l67.1-157.7c2.6-6.1,9.7-8.9,15.7-6.3l48.7,20.7c6.1,2.6,8.9,9.7,6.3,15.7l-67.1,157.7   c-2.6,6.1-9.7,8.9-15.7,6.3l-48.7-20.7C717.8,562.5,714.9,555.4,717.5,549.4z" fill="#ffffff" style="fill: rgb(255, 255, 255);"></path><path d="M597,616.1c0.1,0.1,0.1,0.1,0.2,0.2C597.2,616.2,597.1,616.2,597,616.1C597.1,616.1,597.1,616.1,597,616.1z   " fill="#ffffff" style="fill: rgb(255, 255, 255);"></path><path d="M597.2,616.2c0.3,0.3,0.5,0.6,0.8,0.8C597.7,616.8,597.5,616.5,597.2,616.2z" fill="#ffffff" style="fill: rgb(255, 255, 255);"></path><path d="M596.1,615c0.3,0.4,0.6,0.7,0.9,1c-6.7-7-9-17.6-5-27l10.6-24.9c0.3-0.7,0.7-1.4,1.1-2.1l-11.5,27.1   c-1.5,3.6-2.2,7.4-2,11.1c0,0.3,0,0.5,0.1,0.7c0,0.3,0,0.5,0.1,0.8c0,0,0,0.1,0,0.1c0.1,0.4,0.1,0.9,0.2,1.3   c0.1,0.4,0.1,0.8,0.2,1.2c0,0.2,0.1,0.4,0.2,0.6c0.1,0.4,0.2,0.7,0.3,1c0.1,0.4,0.2,0.8,0.4,1.2c0,0.2,0.1,0.3,0.2,0.5   c0.1,0.4,0.3,0.8,0.5,1.1c0.2,0.4,0.3,0.7,0.5,1.1c0.1,0.2,0.2,0.5,0.4,0.7c0,0.1,0.1,0.2,0.1,0.3c0.2,0.3,0.3,0.6,0.5,0.8   c0.1,0.3,0.3,0.5,0.5,0.7c0.2,0.3,0.4,0.7,0.7,1c0.2,0.2,0.3,0.5,0.5,0.7C595.6,614.4,595.8,614.7,596.1,615z" fill="#ffffff" style="fill: rgb(255, 255, 255);"></path><path d="M599.3,618.2c-0.4-0.4-0.8-0.7-1.2-1.1C598.4,617.4,598.8,617.8,599.3,618.2z" fill="#ffffff" style="fill: rgb(255, 255, 255);"></path><path d="M375.8,610.9L365,636.6c0.1-0.2,0.2-0.5,0.3-0.7l10.5-24.9C375.8,610.9,375.8,610.9,375.8,610.9z" fill="#ffffff" style="fill: rgb(255, 255, 255);"></path><path d="M448.8,722.8l158,66.4c6.1,2.6,9,9.6,6.4,15.7l-20.5,48.8c-2.6,6.1-9.6,9-15.7,6.4l-158-66.4   c-6.1-2.6-9-9.6-6.4-15.7l20.5-48.8C435.6,723.1,442.7,720.2,448.8,722.8z" fill="#ffffff" style="fill: rgb(255, 255, 255);"></path><path d="M435.5,609l-27.1-11.4c-9.7-4-20.6-1.5-27.5,5.6c6.9-7.2,17.9-9.8,27.6-5.7l24.9,10.5   C434.2,608.3,434.9,608.6,435.5,609z" fill="#ffffff" style="fill: rgb(255, 255, 255);"></path><path d="M385.7,381.4l-26-10.8c0.3,0.1,0.6,0.2,0.9,0.4l25,10.4C385.7,381.3,385.7,381.3,385.7,381.4z" fill="#ffffff" style="fill: rgb(255, 255, 255);"></path><path d="M274.1,454.8l-65.7,158.3c-2.5,6.1-9.6,9-15.7,6.5l-48.9-20.3c-6.1-2.5-9-9.6-6.5-15.7L203,425.4   c2.5-6.1,9.6-9,15.7-6.5l48.9,20.3C273.8,441.7,276.7,448.7,274.1,454.8z" fill="#ffffff" style="fill: rgb(255, 255, 255);"></path><g fill="#ffffff"><path d="M798.8,133c-38.1,0-69.2,31-69.2,69.1c0,13.9,4.1,26.8,11.2,37.6L603.7,562l-11.5,27.1    c-1.5,3.6-2.2,7.4-2,11.1c0,0.2,0,0.5,0.1,0.7c0,0.3,0,0.5,0.1,0.8c0,0,0,0.1,0,0.1c0.1,0.4,0.1,0.9,0.2,1.3    c0.1,0.4,0.1,0.8,0.2,1.2c0,0.2,0.1,0.4,0.2,0.6c0.1,0.4,0.2,0.7,0.3,1c0.1,0.4,0.2,0.8,0.4,1.2c0,0.2,0.1,0.3,0.2,0.5    c0.1,0.4,0.3,0.8,0.5,1.1c0.2,0.4,0.3,0.7,0.5,1.1c0.1,0.2,0.2,0.5,0.4,0.7c0,0.1,0.1,0.2,0.1,0.3c0.2,0.3,0.3,0.6,0.5,0.8    c0.1,0.3,0.3,0.5,0.5,0.7c0.2,0.3,0.4,0.7,0.7,1c0.2,0.2,0.3,0.5,0.5,0.7c0.3,0.3,0.5,0.6,0.8,1c0.2,0.2,0.3,0.4,0.5,0.6    c0.1,0.1,0.1,0.1,0.2,0.2c0.1,0.1,0.1,0.1,0.2,0.2c0.1,0.1,0.1,0.1,0.1,0.1c0.7,0.7,1.4,1.4,2.2,2c0,0,0,0,0,0    c0.4,0.3,0.8,0.6,1.2,0.9c1.5,1.1,3.1,2,4.8,2.7l25,10.7l1.2,0.5l107.7,45.8c12.6,5.4,27.4-0.6,32.7-13.2l10.6-24.9    c5.4-12.6-0.6-27.3-13.2-32.7l-85.9-36.5l128.2-301.3c32.1-6,56.4-34.2,56.4-68C868,164,837,133,798.8,133z M826.1,227.7    c-6.8,7.3-16.5,11.8-27.3,11.8c-20.6,0-37.4-16.8-37.4-37.4c0-0.7,0-1.5,0.1-2.2v0c1.1-19.6,17.4-35.2,37.4-35.2    c20.6,0,37.4,16.8,37.4,37.4C836.3,212,832.4,221,826.1,227.7z" fill="#ffffff" style="fill: rgb(255, 255, 255);"></path></g><g fill="#ffffff"><path d="M392.1,385.2c-1.9-1.6-4-2.9-6.3-3.8l-26-10.8l-0.3-0.1l-108.1-44.8c-12.7-5.3-27.4,0.8-32.6,13.5    l-10.4,25c-5.3,12.7,0.8,27.4,13.5,32.6l86.2,35.8L181.7,737.2c-28.7,8.4-49.7,35-49.7,66.4c0,38.1,31,69.2,69.2,69.2    c38.1,0,69.2-31,69.2-69.2c0-16.2-5.6-31.1-15-42.9l132.5-319.5c0.4-0.7,0.7-1.4,1-2.1l10.4-25C403.5,403.7,400.3,392,392.1,385.2    z M201.2,841c-20.6,0-37.4-16.8-37.4-37.4c0-7.6,2.3-14.6,6.1-20.5c6.7-10.2,18.2-16.9,31.3-16.9c19.3,0,35.2,14.7,37.2,33.5v0    c0.1,1.3,0.2,2.6,0.2,3.9C238.6,824.2,221.8,841,201.2,841z" fill="#ffffff" style="fill: rgb(255, 255, 255);"></path></g><g fill="#ffffff"><path d="M795,736.3c-12.5,0-24.3,3.4-34.5,9.2L435.5,609l-27.1-11.4c-9.7-4-20.6-1.5-27.5,5.6    c-2.1,2.2-3.9,4.7-5.1,7.7L365,636.6L319.5,745c-5.3,12.7,0.7,27.4,13.3,32.7l24.9,10.5c12.7,5.3,27.4-0.7,32.7-13.3l36.2-86.1    l299.9,126c4.5,33.8,33.5,59.9,68.5,59.9c38.1,0,69.2-31,69.2-69.2C864.2,767.4,833.2,736.3,795,736.3z M795,842.9    c-11.3,0-21.4-5-28.2-12.9h0c-5.7-6.6-9.2-15.2-9.2-24.5c0-20.6,16.8-37.4,37.4-37.4c1.9,0,3.7,0.1,5.6,0.4    c18,2.7,31.9,18.3,31.9,37C832.5,826.1,815.7,842.9,795,842.9z" fill="#ffffff" style="fill: rgb(255, 255, 255);"></path></g></g></g></svg>