<svg enable-background="new 0 0 219.17 82.07" viewBox="0 0 219.17 82.07" xmlns="http://www.w3.org/2000/svg"><path d="m81.95 39.97c8.85 0 16.05-7.2 16.05-16.05s-7.2-16.05-16.05-16.05-16.05 7.2-16.05 16.05 7.2 16.05 16.05 16.05zm.94-7.88c1.43.06 2.85.26 4.2.59-.22.51-.45 1-.7 1.47-1.04 1.91-2.31 3.25-3.5 3.74zm0-1.88v-5.35h5.87c-.08 2.09-.44 4.16-1.03 6.05-1.55-.39-3.19-.63-4.84-.7zm0-7.23v-5.35c1.65-.07 3.29-.3 4.85-.7.59 1.89.94 3.96 1.03 6.05zm0-7.23v-5.8c1.19.49 2.46 1.83 3.5 3.74.25.47.49.96.7 1.47-1.35.33-2.77.53-4.2.59zm-1.88 0c-1.43-.06-2.85-.26-4.2-.59.22-.51.45-1 .7-1.47 1.04-1.91 2.31-3.25 3.5-3.74zm0 1.88v5.35h-5.87c.08-2.09.44-4.16 1.03-6.05 1.55.4 3.19.64 4.84.7zm0 7.23v5.35c-1.65.07-3.29.3-4.85.7-.59-1.89-.94-3.96-1.03-6.05zm0 7.23v5.8c-1.19-.49-2.46-1.83-3.5-3.74-.25-.47-.49-.96-.7-1.47 1.35-.32 2.77-.52 4.2-.59zm-5.15 2.96c.47.87.98 1.63 1.52 2.29-1.88-.64-3.58-1.67-5.02-2.99.82-.44 1.7-.82 2.62-1.14.27.64.56 1.26.88 1.84zm12.18 0c.32-.58.61-1.2.87-1.84.93.32 1.81.7 2.62 1.14-1.43 1.32-3.14 2.34-5.02 2.99.55-.66 1.06-1.42 1.53-2.29zm1.51-3.6c.64-2.05 1.02-4.29 1.1-6.58h5.44c-.2 3.06-1.38 5.85-3.22 8.08-1.02-.6-2.14-1.1-3.32-1.5zm1.1-8.47c-.08-2.29-.46-4.53-1.1-6.58 1.18-.41 2.3-.91 3.32-1.49 1.84 2.23 3.01 5.02 3.22 8.08h-5.44zm-1.74-8.35c-.26-.64-.55-1.25-.87-1.84-.47-.87-.98-1.63-1.52-2.29 1.88.64 3.58 1.67 5.02 2.99-.82.44-1.7.82-2.63 1.14zm-13.05-1.84c-.32.58-.61 1.2-.87 1.84-.93-.32-1.81-.7-2.62-1.14 1.43-1.32 3.14-2.34 5.02-2.99-.55.66-1.06 1.43-1.53 2.29zm-1.51 3.61c-.64 2.05-1.02 4.29-1.1 6.58h-5.44c.2-3.06 1.38-5.85 3.22-8.08 1.02.59 2.14 1.09 3.32 1.5zm-1.1 8.46c.08 2.29.46 4.53 1.1 6.58-1.18.41-2.3.91-3.32 1.49-1.84-2.23-3.01-5.02-3.22-8.08h5.44z" fill="#fff"/><path d="m97.11 74.35v-1.41h1.94c2.18 0 3.73-.7 4.65-2.09.56-.84.84-2.72.84-5.64v-33.36c0-3.22-.36-5.24-1.07-6.06-.99-1.12-2.46-1.68-4.42-1.68h-1.94v-1.41h21.02c7.72 0 13.59.88 17.61 2.63s7.26 4.67 9.71 8.76 3.68 8.81 3.68 14.17c0 7.19-2.18 13.19-6.55 18.01-4.9 5.38-12.37 8.07-22.39 8.07h-23.08zm15.65-4.19c3.22.71 5.93 1.07 8.11 1.07 5.89 0 10.78-2.07 14.66-6.21s5.83-9.75 5.83-16.83c0-7.13-1.94-12.76-5.83-16.87s-8.87-6.17-14.97-6.17c-2.29 0-4.89.37-7.81 1.1v43.91z" fill="#03a9f4"/><path d="m150.35 54.89c-.03 5.18 1.23 9.24 3.77 12.19s5.52 4.42 8.95 4.42c2.29 0 4.27-.63 5.96-1.89s3.1-3.41 4.25-6.46l1.18.76c-.53 3.48-2.08 6.65-4.65 9.5s-5.78 4.28-9.63 4.28c-4.19 0-7.78-1.63-10.76-4.89s-4.48-7.65-4.48-13.16c0-5.97 1.53-10.62 4.59-13.96s6.9-5.01 11.52-5.01c3.91 0 7.12 1.29 9.64 3.87 2.51 2.58 3.77 6.02 3.77 10.34h-24.11zm-.07-2.17h21.33c-.81-1.93-1.68-3.86-2.59-5.79-1.73-1.32-3.22-2.16-4.47-2.53-1.26-.37-2.57-.55-3.94-.55-2.11 0-3.99.82-5.65 2.46-1.68 1.63-3.24 3.77-4.68 6.41z" fill="#03a9f4"/><path d="m217.12 24.38v1.41c-1.83.33-3.21.91-4.15 1.75-1.35 1.24-2.54 3.15-3.58 5.71l-18.01 43.95h-1.41l-19.35-44.52c-.99-2.29-1.69-3.68-2.09-4.19-.63-.79-1.42-1.4-2.34-1.85-.93-.44-2.18-.73-3.75-.86v-1.41h21.1v1.41c-2.39.23-3.94.63-4.65 1.22-.71.58-1.07 1.33-1.07 2.25 0 1.27.58 3.25 1.75 5.94l13.14 30.28 12.19-29.9c1.19-2.95 1.79-4.99 1.79-6.13 0-.74-.37-1.44-1.1-2.11-.74-.67-1.98-1.15-3.73-1.43-.13-.02-.34-.06-.65-.11v-1.41z" fill="#03a9f4"/><g fill="#fff"><path d="m27.17 69.81c-1.75 1.82-3.45 3.13-5.12 3.93-1.67.79-3.46 1.19-5.39 1.19-3.91 0-7.32-1.63-10.23-4.9-2.92-3.27-4.38-7.47-4.38-12.6s1.61-9.82 4.84-14.08 7.38-6.39 12.46-6.39c3.15 0 5.75 1 7.81 3.01v-6.6c0-4.09-.1-6.6-.29-7.54s-.5-1.58-.92-1.91c-.42-.34-.94-.51-1.56-.51-.68 0-1.58.21-2.7.63l-.51-1.37 10.66-4.38h1.76v41.37c0 4.19.1 6.75.29 7.68s.51 1.57.94 1.93.93.55 1.5.55c.7 0 1.64-.22 2.81-.66l.43 1.37-10.63 4.41h-1.8v-5.13zm0-1.79v-18.44c-.16-1.77-.63-3.38-1.41-4.84s-1.82-2.56-3.11-3.3-2.55-1.11-3.77-1.11c-2.29 0-4.34 1.03-6.13 3.09-2.37 2.71-3.55 6.67-3.55 11.88 0 5.26 1.15 9.29 3.44 12.09s4.84 4.2 7.66 4.2c2.36-.02 4.65-1.2 6.87-3.57z"/><path d="m42.56 3.76v35.63l9.1-8.32c1.93-1.77 3.05-2.89 3.36-3.36.21-.31.31-.63.31-.94 0-.52-.21-.97-.64-1.35s-1.14-.59-2.13-.64v-1.25h15.55v1.25c-2.14.05-3.91.38-5.33.98s-2.98 1.67-4.67 3.2l-9.18 8.48 9.18 11.6c2.55 3.2 4.27 5.23 5.16 6.09 1.25 1.22 2.34 2.02 3.28 2.38.65.26 1.78.39 3.4.39v1.41h-17.39v-1.41c.99-.03 1.66-.18 2.01-.45s.53-.66.53-1.15c0-.6-.52-1.56-1.56-2.89l-10.98-14.03v11.88c0 2.32.16 3.84.49 4.57s.79 1.25 1.39 1.56 1.9.48 3.91.51v1.41h-18.2v-1.41c1.82 0 3.19-.22 4.1-.66.55-.29.96-.73 1.25-1.33.39-.86.59-2.34.59-4.45v-32.58c0-4.14-.09-6.67-.27-7.6-.18-.92-.48-1.56-.9-1.91s-.96-.53-1.64-.53c-.55 0-1.37.22-2.46.66l-.66-1.37 10.63-4.38h1.77z"/><path d="m39.49 61.58h8.25v.79c-.76.06-1.26.19-1.49.41s-.35.52-.35.92c0 .44.12.98.37 1.61l4.21 11.32 4.23-9.22-1.12-2.9c-.34-.86-.79-1.45-1.35-1.78-.32-.2-.9-.32-1.76-.37v-.79h9.37v.79c-1.03.04-1.76.23-2.19.56-.29.23-.43.59-.43 1.1 0 .29.06.58.17.88l4.47 11.3 4.13-10.88c.29-.77.43-1.39.43-1.85 0-.27-.14-.52-.42-.73s-.83-.34-1.64-.37v-.79h6.21v.79c-1.25.19-2.16 1.03-2.75 2.54l-6.57 16.95h-.88l-4.92-12.57-5.74 12.57h-.79l-6.33-16.54c-.42-1.05-.82-1.75-1.22-2.12s-1.03-.64-1.89-.83z"/><path d="m67.89 65.12c-.01 2.92.69 5.21 2.13 6.88 1.43 1.66 3.12 2.49 5.05 2.49 1.29 0 2.41-.35 3.36-1.06s1.75-1.92 2.4-3.64l.67.43c-.3 1.96-1.17 3.75-2.62 5.36s-3.26 2.42-5.44 2.42c-2.36 0-4.39-.92-6.07-2.76s-2.52-4.31-2.52-7.42c0-3.37.86-5.99 2.59-7.87s3.89-2.83 6.5-2.83c2.21 0 4.02.73 5.44 2.18s2.13 3.4 2.13 5.83h-13.62zm-.04-1.22h12.03c-.46-1.09-.95-2.18-1.46-3.27-.97-.75-1.82-1.22-2.52-1.43s-1.45-.31-2.22-.31c-1.19 0-2.25.46-3.19 1.39-.95.92-1.82 2.13-2.64 3.62z"/><path d="m85.35 63.51c1.9-2.65 3.96-3.97 6.17-3.97 2.02 0 3.78.86 5.29 2.59s2.26 4.09 2.26 7.08c0 3.5-1.16 6.31-3.48 8.44-1.99 1.83-4.21 2.75-6.66 2.75-1.15 0-2.31-.21-3.49-.62s-2.39-1.04-3.62-1.87v-20.39c0-2.23-.05-3.61-.16-4.13s-.28-.87-.5-1.05-.52-.28-.86-.28c-.4 0-.9.11-1.5.34l-.3-.75 5.91-2.41h.97v14.27zm1.03.69v11.77c.73.72 1.49 1.26 2.27 1.62.78.37 1.58.55 2.4.55 1.3 0 2.52-.72 3.64-2.15s1.69-3.52 1.69-6.25c0-2.52-.56-4.46-1.69-5.81s-2.4-2.03-3.83-2.03c-.76 0-1.52.19-2.28.58-.58.29-1.31.86-2.2 1.72z"/></g></svg>