<?xml version="1.0" encoding="utf-8"?>
<!-- Generator: Adobe Illustrator 23.0.3, SVG Export Plug-In . SVG Version: 6.00 Build 0)  -->
<svg version="1.1" xmlns="http://www.w3.org/2000/svg" xmlns:xlink="http://www.w3.org/1999/xlink" x="0px" y="0px"
	 viewBox="0 0 219.17 82.07" style="enable-background:new 0 0 219.17 82.07;" xml:space="preserve">
<style type="text/css">
	.st0{fill:#000;}
</style>
<g id="Слой_5">
	<path fill="#000" class="st0" d="M81.95,39.97c8.85,0,16.05-7.2,16.05-16.05S90.8,7.87,81.95,7.87S65.9,15.07,65.9,23.92
		S73.1,39.97,81.95,39.97z M82.89,32.09c1.43,0.06,2.85,0.26,4.2,0.59c-0.22,0.51-0.45,1-0.7,1.47c-1.04,1.91-2.31,3.25-3.5,3.74
		V32.09z M82.89,30.21v-5.35h5.87c-0.08,2.09-0.44,4.16-1.03,6.05C86.18,30.52,84.54,30.28,82.89,30.21z M82.89,22.98v-5.35
		c1.65-0.07,3.29-0.3,4.85-0.7c0.59,1.89,0.94,3.96,1.03,6.05H82.89z M82.89,15.75v-5.8c1.19,0.49,2.46,1.83,3.5,3.74
		c0.25,0.47,0.49,0.96,0.7,1.47C85.74,15.49,84.32,15.69,82.89,15.75z M81.01,15.75c-1.43-0.06-2.85-0.26-4.2-0.59
		c0.22-0.51,0.45-1,0.7-1.47c1.04-1.91,2.31-3.25,3.5-3.74V15.75z M81.01,17.63v5.35h-5.87c0.08-2.09,0.44-4.16,1.03-6.05
		C77.72,17.33,79.36,17.57,81.01,17.63z M81.01,24.86v5.35c-1.65,0.07-3.29,0.3-4.85,0.7c-0.59-1.89-0.94-3.96-1.03-6.05H81.01z
		 M81.01,32.09v5.8c-1.19-0.49-2.46-1.83-3.5-3.74c-0.25-0.47-0.49-0.96-0.7-1.47C78.16,32.36,79.58,32.16,81.01,32.09z
		 M75.86,35.05c0.47,0.87,0.98,1.63,1.52,2.29c-1.88-0.64-3.58-1.67-5.02-2.99c0.82-0.44,1.7-0.82,2.62-1.14
		C75.25,33.85,75.54,34.47,75.86,35.05z M88.04,35.05c0.32-0.58,0.61-1.2,0.87-1.84c0.93,0.32,1.81,0.7,2.62,1.14
		c-1.43,1.32-3.14,2.34-5.02,2.99C87.06,36.68,87.57,35.92,88.04,35.05z M89.55,31.45c0.64-2.05,1.02-4.29,1.1-6.58h5.44
		c-0.2,3.06-1.38,5.85-3.22,8.08C91.85,32.35,90.73,31.85,89.55,31.45z M90.65,22.98c-0.08-2.29-0.46-4.53-1.1-6.58
		c1.18-0.41,2.3-0.91,3.32-1.49c1.84,2.23,3.01,5.02,3.22,8.08H90.65z M88.91,14.63c-0.26-0.64-0.55-1.25-0.87-1.84
		c-0.47-0.87-0.98-1.63-1.52-2.29c1.88,0.64,3.58,1.67,5.02,2.99C90.72,13.93,89.84,14.31,88.91,14.63z M75.86,12.79
		c-0.32,0.58-0.61,1.2-0.87,1.84c-0.93-0.32-1.81-0.7-2.62-1.14c1.43-1.32,3.14-2.34,5.02-2.99C76.84,11.16,76.33,11.93,75.86,12.79
		z M74.35,16.4c-0.64,2.05-1.02,4.29-1.1,6.58h-5.44c0.2-3.06,1.38-5.85,3.22-8.08C72.05,15.49,73.17,15.99,74.35,16.4z
		 M73.25,24.86c0.08,2.29,0.46,4.53,1.1,6.58c-1.18,0.41-2.3,0.91-3.32,1.49c-1.84-2.23-3.01-5.02-3.22-8.08H73.25z"/>
</g>
<g id="Слой_6">
</g>
<g id="Слой_4">
	<g>
		<path fill="#03A9F4" d="M97.11,74.35v-1.41h1.94c2.18,0,3.73-0.7,4.65-2.09c0.56-0.84,0.84-2.72,0.84-5.64V31.85c0-3.22-0.36-5.24-1.07-6.06
			c-0.99-1.12-2.46-1.68-4.42-1.68h-1.94V22.7h21.02c7.72,0,13.59,0.88,17.61,2.63c4.02,1.75,7.26,4.67,9.71,8.76
			c2.45,4.09,3.68,8.81,3.68,14.17c0,7.19-2.18,13.19-6.55,18.01c-4.9,5.38-12.37,8.07-22.39,8.07H97.11z M112.76,70.16
			c3.22,0.71,5.93,1.07,8.11,1.07c5.89,0,10.78-2.07,14.66-6.21c3.88-4.14,5.83-9.75,5.83-16.83c0-7.13-1.94-12.76-5.83-16.87
			s-8.87-6.17-14.97-6.17c-2.29,0-4.89,0.37-7.81,1.1V70.16z"/>
		<path fill="#03A9F4" d="M150.35,54.89c-0.03,5.18,1.23,9.24,3.77,12.19c2.54,2.95,5.52,4.42,8.95,4.42c2.29,0,4.27-0.63,5.96-1.89
			c1.69-1.26,3.1-3.41,4.25-6.46l1.18,0.76c-0.53,3.48-2.08,6.65-4.65,9.5s-5.78,4.28-9.63,4.28c-4.19,0-7.78-1.63-10.76-4.89
			c-2.98-3.26-4.48-7.65-4.48-13.16c0-5.97,1.53-10.62,4.59-13.96c3.06-3.34,6.9-5.01,11.52-5.01c3.91,0,7.12,1.29,9.64,3.87
			c2.51,2.58,3.77,6.02,3.77,10.34H150.35z M150.28,52.72h21.33c-0.81-1.93-1.68-3.86-2.59-5.79c-1.73-1.32-3.22-2.16-4.47-2.53
			c-1.26-0.37-2.57-0.55-3.94-0.55c-2.11,0-3.99,0.82-5.65,2.46C153.28,47.94,151.72,50.08,150.28,52.72z"/>
		<path fill="#03A9F4" d="M217.12,24.38v1.41c-1.83,0.33-3.21,0.91-4.15,1.75c-1.35,1.24-2.54,3.15-3.58,5.71l-18.01,43.95h-1.41l-19.35-44.52
			c-0.99-2.29-1.69-3.68-2.09-4.19c-0.63-0.79-1.42-1.4-2.34-1.85c-0.93-0.44-2.18-0.73-3.75-0.86v-1.41h21.1v1.41
			c-2.39,0.23-3.94,0.63-4.65,1.22c-0.71,0.58-1.07,1.33-1.07,2.25c0,1.27,0.58,3.25,1.75,5.94l13.14,30.28l12.19-29.9
			c1.19-2.95,1.79-4.99,1.79-6.13c0-0.74-0.37-1.44-1.1-2.11c-0.74-0.67-1.98-1.15-3.73-1.43c-0.13-0.02-0.34-0.06-0.65-0.11v-1.41
			H217.12z"/>
	</g>
</g>
<g id="Слой_1">
	<g>
		<path fill="#000" d="M27.17,69.81c-1.75,1.82-3.45,3.13-5.12,3.93c-1.67,0.79-3.46,1.19-5.39,1.19c-3.91,0-7.32-1.63-10.23-4.9
			c-2.92-3.27-4.38-7.47-4.38-12.6c0-5.13,1.61-9.82,4.84-14.08c3.23-4.26,7.38-6.39,12.46-6.39c3.15,0,5.75,1,7.81,3.01v-6.6
			c0-4.09-0.1-6.6-0.29-7.54s-0.5-1.58-0.92-1.91c-0.42-0.34-0.94-0.51-1.56-0.51c-0.68,0-1.58,0.21-2.7,0.63l-0.51-1.37l10.66-4.38
			h1.76v41.37c0,4.19,0.1,6.75,0.29,7.68s0.51,1.57,0.94,1.93c0.43,0.36,0.93,0.55,1.5,0.55c0.7,0,1.64-0.22,2.81-0.66l0.43,1.37
			l-10.63,4.41h-1.8V69.81z M27.17,68.02V49.58c-0.16-1.77-0.63-3.38-1.41-4.84c-0.78-1.46-1.82-2.56-3.11-3.3s-2.55-1.11-3.77-1.11
			c-2.29,0-4.34,1.03-6.13,3.09c-2.37,2.71-3.55,6.67-3.55,11.88c0,5.26,1.15,9.29,3.44,12.09c2.29,2.8,4.84,4.2,7.66,4.2
			C22.66,71.57,24.95,70.39,27.17,68.02z"/>
		<path fill="#000" d="M42.56,3.76v35.63l9.1-8.32c1.93-1.77,3.05-2.89,3.36-3.36c0.21-0.31,0.31-0.63,0.31-0.94c0-0.52-0.21-0.97-0.64-1.35
			c-0.43-0.38-1.14-0.59-2.13-0.64v-1.25h15.55v1.25c-2.14,0.05-3.91,0.38-5.33,0.98c-1.42,0.6-2.98,1.67-4.67,3.2l-9.18,8.48
			l9.18,11.6c2.55,3.2,4.27,5.23,5.16,6.09c1.25,1.22,2.34,2.02,3.28,2.38c0.65,0.26,1.78,0.39,3.4,0.39v1.41H52.56V57.9
			c0.99-0.03,1.66-0.18,2.01-0.45s0.53-0.66,0.53-1.15c0-0.6-0.52-1.56-1.56-2.89L42.56,39.38v11.88c0,2.32,0.16,3.84,0.49,4.57
			c0.33,0.73,0.79,1.25,1.39,1.56c0.6,0.31,1.9,0.48,3.91,0.51v1.41h-18.2V57.9c1.82,0,3.19-0.22,4.1-0.66
			c0.55-0.29,0.96-0.73,1.25-1.33c0.39-0.86,0.59-2.34,0.59-4.45V18.88c0-4.14-0.09-6.67-0.27-7.6c-0.18-0.92-0.48-1.56-0.9-1.91
			c-0.42-0.35-0.96-0.53-1.64-0.53c-0.55,0-1.37,0.22-2.46,0.66l-0.66-1.37l10.63-4.38H42.56z"/>
	</g>
	<g>
		<path fill="#000" d="M39.49,61.58h8.25v0.79c-0.76,0.06-1.26,0.19-1.49,0.41s-0.35,0.52-0.35,0.92c0,0.44,0.12,0.98,0.37,1.61l4.21,11.32
			l4.23-9.22l-1.12-2.9c-0.34-0.86-0.79-1.45-1.35-1.78c-0.32-0.2-0.9-0.32-1.76-0.37v-0.79h9.37v0.79
			c-1.03,0.04-1.76,0.23-2.19,0.56c-0.29,0.23-0.43,0.59-0.43,1.1c0,0.29,0.06,0.58,0.17,0.88l4.47,11.3L66,65.32
			c0.29-0.77,0.43-1.39,0.43-1.85c0-0.27-0.14-0.52-0.42-0.73s-0.83-0.34-1.64-0.37v-0.79h6.21v0.79c-1.25,0.19-2.16,1.03-2.75,2.54
			l-6.57,16.95h-0.88l-4.92-12.57l-5.74,12.57h-0.79L42.6,65.32c-0.42-1.05-0.82-1.75-1.22-2.12c-0.4-0.37-1.03-0.64-1.89-0.83
			V61.58z"/>
		<path fill="#000" d="M67.89,65.12c-0.01,2.92,0.69,5.21,2.13,6.88c1.43,1.66,3.12,2.49,5.05,2.49c1.29,0,2.41-0.35,3.36-1.06
			c0.95-0.71,1.75-1.92,2.4-3.64l0.67,0.43c-0.3,1.96-1.17,3.75-2.62,5.36c-1.45,1.61-3.26,2.42-5.44,2.42
			c-2.36,0-4.39-0.92-6.07-2.76c-1.68-1.84-2.52-4.31-2.52-7.42c0-3.37,0.86-5.99,2.59-7.87c1.73-1.88,3.89-2.83,6.5-2.83
			c2.21,0,4.02,0.73,5.44,2.18s2.13,3.4,2.13,5.83H67.89z M67.85,63.9h12.03c-0.46-1.09-0.95-2.18-1.46-3.27
			c-0.97-0.75-1.82-1.22-2.52-1.43s-1.45-0.31-2.22-0.31c-1.19,0-2.25,0.46-3.19,1.39C69.54,61.2,68.67,62.41,67.85,63.9z"/>
		<path fill="#000" d="M85.35,63.51c1.9-2.65,3.96-3.97,6.17-3.97c2.02,0,3.78,0.86,5.29,2.59s2.26,4.09,2.26,7.08c0,3.5-1.16,6.31-3.48,8.44
			c-1.99,1.83-4.21,2.75-6.66,2.75c-1.15,0-2.31-0.21-3.49-0.62s-2.39-1.04-3.62-1.87V57.52c0-2.23-0.05-3.61-0.16-4.13
			s-0.28-0.87-0.5-1.05s-0.52-0.28-0.86-0.28c-0.4,0-0.9,0.11-1.5,0.34l-0.3-0.75l5.91-2.41h0.97V63.51z M86.38,64.2v11.77
			c0.73,0.72,1.49,1.26,2.27,1.62c0.78,0.37,1.58,0.55,2.4,0.55c1.3,0,2.52-0.72,3.64-2.15c1.12-1.43,1.69-3.52,1.69-6.25
			c0-2.52-0.56-4.46-1.69-5.81c-1.13-1.35-2.4-2.03-3.83-2.03c-0.76,0-1.52,0.19-2.28,0.58C88,62.77,87.27,63.34,86.38,64.2z"/>
	</g>
</g>
<g id="Слой_3">
	<g>
	</g>
	<g>
	</g>
	<g>
	</g>
	<g>
	</g>
	<g>
	</g>
	<g>
	</g>
</g>
</svg>
